<svg width="60" height="75" viewBox="0 0 108 75" fill="none" xmlns="http://www.w3.org/2000/svg">
<rect x="0.5" y="0.5" width="107" height="74" rx="3.5" fill="#006FCF" stroke="#F3F3F3"/>
<path fill-rule="evenodd" clip-rule="evenodd" d="M22.0902 54.1756V38.7359H39.4515L41.3142 41.0224L43.2385 38.7359H106.256V53.1108C106.256 53.1108 104.608 54.1602 102.702 54.1756H67.8078L65.7077 51.7418V54.1756H58.8258V50.021C58.8258 50.021 57.8857 50.6009 55.8534 50.6009H53.5109V54.1756H43.0912L41.2312 51.8401L39.3426 54.1756H22.0902ZM1.86194 27.0991L5.7681 18.5046H12.5234L14.7402 23.3189V18.5046H23.1377L24.4573 21.9842L25.7367 18.5046H63.4326V20.2539C63.4326 20.2539 65.4142 18.5046 68.6709 18.5046L80.9019 18.5449L83.0804 23.2962V18.5046H90.1078L92.042 21.2338V18.5046H99.1339V33.9443H92.042L90.1884 31.2062V33.9443H79.8636L78.8252 31.5105H76.0496L75.0282 33.9443H68.0262C65.2239 33.9443 63.4326 32.2307 63.4326 32.2307V33.9443H52.8753L50.78 31.5105V33.9443H11.5226L10.4851 31.5105H7.71823L6.68797 33.9443H1.86194L1.86194 27.0991ZM1.88231 31.9686L7.15087 20.4078H11.1451L16.4086 31.9686H12.903L11.9359 29.6536H6.28453L5.31241 31.9686H1.88231ZM10.8229 27.1438L9.10033 23.0985L7.37269 27.1438H10.8229ZM16.7712 31.9668V20.406L21.6455 20.4231L24.4806 27.8768L27.2478 20.406H32.0832V31.9668H29.0208V23.4484L25.7746 31.9668H23.0888L19.8336 23.4484V31.9668H16.7712ZM34.1786 31.9668V20.406H44.1717V22.992H37.2732V24.9695H44.0105V27.4034H37.2732V29.4569H44.1717V31.9668H34.1786ZM45.9444 31.9686V20.4078H52.7593C55.0174 20.4078 57.0406 21.7256 57.0406 24.1584C57.0406 26.2381 55.3348 27.5777 53.681 27.7094L57.7105 31.9686H53.9681L50.2963 27.8615H49.0068V31.9686H45.9444ZM52.5077 22.9937H49.0071V25.4276H52.5531C53.1669 25.4276 53.9584 24.9787 53.9584 24.2106C53.9584 23.6136 53.3475 22.9937 52.5077 22.9937ZM61.4178 31.9668H58.2909V20.406H61.4178V31.9668ZM68.832 31.9668H68.1571C64.8914 31.9668 62.9087 29.5387 62.9087 26.234C62.9087 22.8476 64.8692 20.406 68.9932 20.406H72.378V23.1441H68.8695C67.1954 23.1441 66.0114 24.3771 66.0114 26.2625C66.0114 28.5014 67.3652 29.4417 69.3156 29.4417H70.1215L68.832 31.9668ZM70.2276 31.9686L75.4961 20.4078H79.4904L84.7539 31.9686H81.2482L80.2812 29.6536H74.6298L73.6577 31.9686H70.2276ZM79.1684 27.1438L77.4457 23.0985L75.7181 27.1438H79.1684ZM85.1114 31.9668V20.406H89.0049L93.9762 27.6696V20.406H97.0387V31.9668H93.2711L88.1738 24.5132V31.9668H85.1114ZM24.1854 52.1982V40.6374H34.1785V43.2234H27.2801V45.2009H34.0174V47.6347H27.2801V49.6883H34.1785V52.1982H24.1854ZM73.1518 52.1982V40.6374H83.1449V43.2234H76.2465V45.2009H82.9515V47.6347H76.2465V49.6883H83.1449V52.1982H73.1518ZM34.5662 52.1982L39.4318 46.4891L34.4504 40.6374H38.3086L41.2753 44.2549L44.2521 40.6374H47.9592L43.0432 46.4178L47.9178 52.1982H44.0602L41.1796 48.6377L38.369 52.1982H34.5662ZM48.282 52.2V40.6392H55.0465C57.8221 40.6392 59.4436 42.3275 59.4436 44.5277C59.4436 47.1835 57.3762 48.5492 54.6486 48.5492H51.425V52.2H48.282ZM54.8196 43.2537H51.4247V45.9158H54.8095C55.7039 45.9158 56.3306 45.3563 56.3306 44.5847C56.3306 43.7634 55.7008 43.2537 54.8196 43.2537ZM60.7734 52.1982V40.6374H67.5883C69.8464 40.6374 71.8696 41.9552 71.8696 44.388C71.8696 46.4677 70.1638 47.8073 68.51 47.939L72.5395 52.1982H68.7971L65.1253 48.0911H63.8358V52.1982H60.7734ZM67.3366 43.2233H63.836V45.6571H67.3819C67.9958 45.6571 68.7872 45.2083 68.7872 44.4402C68.7872 43.8432 68.1764 43.2233 67.3366 43.2233ZM84.5631 52.1982V49.6883H90.692C91.5989 49.6883 91.9915 49.2258 91.9915 48.7186C91.9915 48.2326 91.6001 47.7412 90.692 47.7412H87.9224C85.515 47.7412 84.1743 46.357 84.1743 44.2787C84.1743 42.425 85.4021 40.6374 88.9795 40.6374H94.9431L93.6537 43.2386H88.4959C87.51 43.2386 87.2065 43.7269 87.2065 44.1931C87.2065 44.6724 87.5816 45.2009 88.3348 45.2009H91.236C93.9197 45.2009 95.0842 46.6376 95.0842 48.5189C95.0842 50.5416 93.7865 52.1982 91.0899 52.1982H84.5631ZM95.3544 52.1982V49.6883H101.483C102.39 49.6883 102.783 49.2258 102.783 48.7186C102.783 48.2326 102.391 47.7412 101.483 47.7412H98.7137C96.3063 47.7412 94.9656 46.357 94.9656 44.2787C94.9656 42.425 96.1934 40.6374 99.7707 40.6374H105.734L104.445 43.2386H99.2872C98.3013 43.2386 97.9978 43.7269 97.9978 44.1931C97.9978 44.6724 98.3728 45.2009 99.126 45.2009H102.027C104.711 45.2009 105.875 46.6376 105.875 48.5189C105.875 50.5416 104.578 52.1982 101.881 52.1982H95.3544Z" fill="white"/>
</svg>
