<svg width="60" height="60" viewBox="0 0 118 50" fill="none" xmlns="http://www.w3.org/2000/svg">
<path fill-rule="evenodd" clip-rule="evenodd" d="M21.561 6.44625C20.178 8.13512 17.9653 9.46719 15.7525 9.2769C15.4759 6.99335 16.5593 4.56709 17.827 3.06851C19.2099 1.33207 21.6301 0.0951477 23.5893 0C23.8198 2.37869 22.9209 4.70981 21.561 6.44625ZM23.5661 9.72872C21.6167 9.61293 19.838 10.3337 18.4012 10.9159C17.4767 11.2906 16.6937 11.6079 16.0981 11.6079C15.4296 11.6079 14.6143 11.2736 13.699 10.8984C12.4996 10.4066 11.1283 9.84446 9.69031 9.87144C6.39423 9.91901 3.32865 11.8458 1.64604 14.9143C-1.81138 21.0513 0.747113 30.1379 4.08929 35.1331C5.7258 37.607 7.685 40.3187 10.2665 40.2235C11.4023 40.1793 12.2192 39.8215 13.0647 39.4513C14.0381 39.025 15.0493 38.5822 16.6282 38.5822C18.1524 38.5822 19.1193 39.0135 20.0475 39.4275C20.9301 39.8211 21.7777 40.1991 23.0359 40.1759C25.7097 40.1284 27.3923 37.7021 29.0288 35.2283C30.7949 32.5732 31.571 29.9819 31.6887 29.5887C31.6955 29.5662 31.7001 29.5509 31.7025 29.5432C31.6997 29.5403 31.6779 29.53 31.6394 29.5118C31.049 29.2329 26.5366 27.101 26.4934 21.3843C26.4499 16.5859 30.0725 14.1548 30.6427 13.7721C30.6774 13.7488 30.7008 13.7331 30.7114 13.7249C28.4065 10.2045 24.8108 9.82386 23.5661 9.72872ZM42.075 39.9143V2.83055H55.5589C62.5199 2.83055 67.3833 7.77823 67.3833 15.0094C67.3833 22.2407 62.4277 27.2359 55.3745 27.2359H47.653V39.9143H42.075ZM47.6524 7.68334H54.0832C58.9236 7.68334 61.6896 10.3475 61.6896 15.0335C61.6896 19.7195 58.9236 22.4074 54.0602 22.4074H47.6524V7.68334ZM85.8001 35.4661C84.3249 38.3681 81.075 40.1997 77.5714 40.1997C72.3853 40.1997 68.7665 37.0122 68.7665 32.2073C68.7665 27.4499 72.2701 24.7144 78.747 24.31L85.7079 23.8819V21.8362C85.7079 18.8153 83.7948 17.174 80.3835 17.174C77.5714 17.174 75.52 18.6725 75.1051 20.9561H70.0804C70.2417 16.1511 74.6211 12.6545 80.5448 12.6545C86.9295 12.6545 91.0784 16.1036 91.0784 21.4556V39.9142H85.9153V35.4661H85.8001ZM79.0693 35.7994C76.096 35.7994 74.2059 34.3246 74.2059 32.0648C74.2059 29.7337 76.0268 28.3779 79.5073 28.1638L85.7076 27.7594V29.8526C85.7076 33.3255 82.8495 35.7994 79.0693 35.7994ZM108.204 41.3654C105.968 47.8592 103.41 50 97.97 50C97.5551 50 96.1721 49.9524 95.8494 49.8573V45.4091C96.1952 45.4567 97.048 45.5043 97.486 45.5043C99.9523 45.5043 101.335 44.4339 102.188 41.6508L102.695 40.0095L93.2449 13.0114H99.0764L105.645 34.9191H105.761L112.33 13.0114H118L108.204 41.3654Z" fill="black"/>
</svg>
