<svg width="100" height="24" viewBox="0 0 158 24" fill="none" xmlns="http://www.w3.org/2000/svg">
<path fill-rule="evenodd" clip-rule="evenodd" d="M146.943 0.517479C152.762 0.517479 155.963 2.77479 155.963 7.03859C156.254 10.2991 153.635 13.0581 150.144 13.5597L158 22.8397H151.889L145.197 13.8105H144.615V22.8397H139.669V0.517479H146.943ZM144.615 10.8009H146.07C149.271 10.8009 150.726 9.54687 150.726 7.28957C150.726 5.28307 149.271 4.02901 146.07 4.02901H144.615V10.8009ZM122.501 22.8397H136.468V19.0776H127.448V13.0581H136.177V9.29589H127.448V4.27966H136.468V0.517479H122.501V22.8397ZM107.952 15.5662L101.259 0.517479H96.0217L106.788 23.3414H109.407L120.173 0.517479H114.935L107.952 15.5662ZM48.8841 11.8039C48.8841 18.0742 54.7036 23.3412 61.978 23.3412C64.3058 23.3412 66.3427 22.8396 68.3795 22.0872V17.0709C66.9246 18.5758 64.8878 19.5791 62.56 19.5791C57.9043 19.5791 54.1217 16.5693 54.1217 12.5563V12.0547C53.8307 8.04171 57.6134 4.53034 62.269 4.27953C64.5968 4.27953 66.9246 5.28278 68.3795 6.78765V1.77141C66.6336 0.768165 64.3058 0.517353 62.269 0.517353C54.7036 0.0157292 48.8841 5.28278 48.8841 11.8039ZM39.8637 9.04507C36.9539 8.04182 36.081 7.5402 36.081 6.28614C36.372 4.78127 37.8269 3.52721 39.5727 3.77802C41.0276 3.77802 42.4825 4.53046 43.6464 5.5337L46.2652 2.52396C44.2283 1.01909 41.6096 0.015843 38.9908 0.015843C34.9171 -0.234969 31.4254 2.52396 31.1344 6.03533V6.28614C31.1344 9.29588 32.5893 11.0516 37.2449 12.3056C38.4088 12.5564 39.5727 13.0581 40.7366 13.5597C41.6096 14.0613 42.1915 14.8137 42.1915 15.817C42.1915 17.5727 40.4457 19.0775 38.6998 19.0775H38.4088C36.081 19.0775 34.0442 17.8235 33.1713 16.0678L29.9705 18.8267C31.7164 21.5857 35.2081 23.0905 38.6998 23.0905C43.3554 23.3413 47.1381 20.3316 47.4291 16.3186V15.5662C47.1381 12.5564 45.6832 11.0516 39.8637 9.04507ZM22.9871 22.8397H27.9337V0.517479H22.9871V22.8397ZM0 0.517479H7.2744H8.72928C15.7127 0.768291 21.2413 5.78453 20.9503 11.804C20.9503 15.0646 19.2044 18.0743 16.2947 20.3316C13.6759 22.0873 10.4751 23.0906 7.2744 22.8397H0V0.517479ZM6.40156 19.0774C8.72937 19.3283 11.3482 18.5758 13.094 17.3218C14.8399 15.8169 15.7128 13.8104 15.7128 11.5531C15.7128 9.5466 14.8399 7.5401 13.094 6.03523C11.3482 4.78117 8.72937 4.02873 6.40156 4.27955H4.94668V19.0774H6.40156Z" fill="black"/>
<path fill-rule="evenodd" clip-rule="evenodd" d="M83.2194 0C75.945 0 69.8345 5.01624 69.8345 11.5373C69.8345 17.8076 75.654 23.0747 83.2194 23.3255C90.7848 23.5763 96.6043 18.3093 96.8953 11.7882C96.6043 5.26705 90.7848 0 83.2194 0V0Z" fill="#FD6020"/>
</svg>
