<svg width="60" height="60" viewBox="0 0 110 85" fill="none" xmlns="http://www.w3.org/2000/svg">
<path fill-rule="evenodd" clip-rule="evenodd" d="M31.0732 75.781V80.2775V84.7739H29.1107V83.6821C28.4883 84.4918 27.5438 85 26.26 85C23.7291 85 21.745 83.0253 21.745 80.2775C21.745 77.5318 23.7291 75.5549 26.26 75.5549C27.5438 75.5549 28.4883 76.0631 29.1107 76.8728V75.781H31.0732ZM26.5041 77.3983C24.8053 77.3983 23.7658 78.6968 23.7658 80.2774C23.7658 81.8581 24.8053 83.1566 26.5041 83.1566C28.1273 83.1566 29.2231 81.9141 29.2231 80.2774C29.2231 78.6408 28.1273 77.3983 26.5041 77.3983ZM97.391 80.2774C97.391 78.6968 98.4306 77.3983 100.129 77.3983C101.755 77.3983 102.848 78.6408 102.848 80.2774C102.848 81.9141 101.755 83.1566 100.129 83.1566C98.4306 83.1566 97.391 81.8581 97.391 80.2774ZM104.701 72.1697V80.2775V84.7739H102.736V83.6821C102.113 84.4918 101.169 85 99.8851 85C97.3542 85 95.3701 83.0253 95.3701 80.2775C95.3701 77.5318 97.3542 75.5549 99.8851 75.5549C101.169 75.5549 102.113 76.0631 102.736 76.8728V72.1697H104.701ZM55.4334 77.3057C56.6977 77.3057 57.5104 78.096 57.7179 79.4871H53.0343C53.244 78.1886 54.035 77.3057 55.4334 77.3057ZM50.9767 80.2775C50.9767 77.4737 52.8268 75.5549 55.4722 75.5549C58.001 75.5549 59.7387 77.4737 59.7581 80.2775C59.7581 80.5402 59.7387 80.7857 59.7192 81.029H53.017C53.3001 82.6484 54.4521 83.232 55.7165 83.232C56.6221 83.232 57.586 82.8918 58.3425 82.2909L59.3043 83.7402C58.2085 84.6619 56.9636 85 55.6041 85C52.9024 85 50.9767 83.1373 50.9767 80.2775ZM79.1689 80.2774C79.1689 78.6968 80.2085 77.3983 81.9073 77.3983C83.5305 77.3983 84.6263 78.6408 84.6263 80.2774C84.6263 81.9141 83.5305 83.1566 81.9073 83.1566C80.2085 83.1566 79.1689 81.8581 79.1689 80.2774ZM86.4764 75.781V80.2775V84.7739H84.5139V83.6821C83.8893 84.4918 82.9469 85 81.6631 85C79.1322 85 77.1481 83.0253 77.1481 80.2775C77.1481 77.5318 79.1322 75.5549 81.6631 75.5549C82.9469 75.5549 83.8893 76.0631 84.5139 76.8728V75.781H86.4764ZM68.0856 80.2775C68.0856 83.0059 69.9918 85 72.901 85C74.2604 85 75.166 84.6985 76.1473 83.9276L75.2049 82.3469C74.4679 82.8745 73.6942 83.1566 72.8426 83.1566C71.2757 83.1373 70.1237 82.0088 70.1237 80.2775C70.1237 78.5461 71.2757 77.4177 72.8426 77.3983C73.6942 77.3983 74.4679 77.6804 75.2049 78.208L76.1473 76.6274C75.166 75.8564 74.2604 75.5549 72.901 75.5549C69.9918 75.5549 68.0856 77.549 68.0856 80.2775ZM91.0083 76.8729C91.5183 76.0825 92.2553 75.5549 93.3879 75.5549C93.7856 75.5549 94.3518 75.6303 94.7862 75.8004L94.1811 77.6438C93.7661 77.4737 93.3511 77.4177 92.9534 77.4177C91.6696 77.4177 91.0277 78.2446 91.0277 79.7327V84.7739H89.0631V75.7811H91.0083V76.8729ZM40.7795 76.496C39.835 75.8758 38.5339 75.5549 37.0988 75.5549C34.8121 75.5549 33.3403 76.6467 33.3403 78.4341C33.3403 79.9006 34.4361 80.8051 36.4547 81.0872L37.3819 81.2185C38.4583 81.3693 38.9662 81.6514 38.9662 82.1596C38.9662 82.8552 38.2486 83.2514 36.9086 83.2514C35.5491 83.2514 34.5679 82.8185 33.9065 82.3103L32.9815 83.8328C34.0578 84.6231 35.4173 85 36.8891 85C39.4957 85 41.0064 83.7768 41.0064 82.0648C41.0064 80.4842 39.8177 79.6573 37.8531 79.3752L36.928 79.2417C36.0787 79.1297 35.3978 78.9617 35.3978 78.3587C35.3978 77.6998 36.0397 77.3057 37.1161 77.3057C38.2681 77.3057 39.3833 77.7385 39.9301 78.0766L40.7795 76.496ZM63.7242 76.8729C64.2321 76.0825 64.9691 75.5549 66.1016 75.5549C66.4993 75.5549 67.0656 75.6303 67.5 75.8004L66.8948 77.6438C66.4798 77.4737 66.0649 77.4177 65.6672 77.4177C64.3834 77.4177 63.7415 78.2446 63.7415 79.7327V84.7739L61.779 84.7739V75.7811H63.7242V76.8729ZM49.3532 75.781H46.1437V73.0526H44.1596V75.781H42.329V77.5684H44.1596V81.6708C44.1596 83.7575 44.9723 85 47.2935 85C48.1451 85 49.1263 84.7373 49.7488 84.3044L49.1825 82.629C48.5968 82.9671 47.9549 83.1373 47.4448 83.1373C46.4636 83.1373 46.1437 82.5343 46.1437 81.632V77.5684H49.3532V75.781ZM20.0093 79.1297V84.7739H18.0252V79.7693C18.0252 78.2446 17.3833 77.3983 16.0433 77.3983C14.74 77.3983 13.8344 78.2274 13.8344 79.7886V84.7739H11.8504V79.7693C11.8504 78.2446 11.1912 77.3983 9.88789 77.3983C8.54572 77.3983 7.67687 78.2274 7.67687 79.7886L7.67687 84.7739H5.69495L5.69495 75.7811H7.65958V76.8901C8.39659 75.8371 9.33892 75.555 10.3029 75.555C11.6818 75.555 12.663 76.1579 13.2855 77.155C14.1176 75.893 15.3063 75.5356 16.4583 75.555C18.6498 75.5743 20.0093 77.0042 20.0093 79.1297Z" fill="#231F20"/>
<path d="M69.8729 60.5003H40.1289V7.24097H69.8729V60.5003Z" fill="#FF5F00"/>
<path d="M42.0159 33.8717C42.0159 23.0678 47.0928 13.444 54.9989 7.24207C49.2174 2.70688 41.9208 -1.52588e-05 33.991 -1.52588e-05C15.2178 -1.52588e-05 0 15.1646 0 33.8717C0 52.5788 15.2178 67.7435 33.991 67.7435C41.9208 67.7435 49.2174 65.0366 54.9989 60.5014C47.0928 54.2994 42.0159 44.6756 42.0159 33.8717Z" fill="#EB001B"/>
<path d="M110 33.8717C110 52.5788 94.7822 67.7435 76.009 67.7435C68.0792 67.7435 60.7826 65.0366 54.9989 60.5014C62.9072 54.2994 67.9841 44.6756 67.9841 33.8717C67.9841 23.0678 62.9072 13.444 54.9989 7.24207C60.7826 2.70688 68.0792 -1.52588e-05 76.009 -1.52588e-05C94.7822 -1.52588e-05 110 15.1646 110 33.8717Z" fill="#F79E1B"/>
</svg>
