<svg width="80" height="42" viewBox="0 0 155 42" fill="none" xmlns="http://www.w3.org/2000/svg">
<path fill-rule="evenodd" clip-rule="evenodd" d="M18.6223 0H6.55202C5.72594 0 5.02346 0.60576 4.89443 1.42907L0.0126267 32.6691C-0.0842678 33.2859 0.388834 33.8412 1.00827 33.8412H6.77052C7.5966 33.8412 8.29908 33.236 8.42811 32.4111L9.74459 23.9849C9.87164 23.1601 10.5756 22.5543 11.4002 22.5543H15.2211C23.1719 22.5543 27.7605 18.6708 28.9594 10.9755C29.4992 7.60842 28.9821 4.96334 27.4199 3.11063C25.7045 1.0763 22.6617 0 18.6223 0ZM20.0141 11.4101C19.3541 15.7817 16.0449 15.7817 12.8454 15.7817H11.0237L12.3016 7.61738C12.3777 7.12389 12.8009 6.76063 13.2953 6.76063H14.1302C16.3099 6.76063 18.3659 6.76063 19.4283 8.01456C20.0621 8.76253 20.2558 9.87426 20.0141 11.4101Z" fill="#28356A"/>
<path fill-rule="evenodd" clip-rule="evenodd" d="M55.0106 11.0331H49.2306C48.7382 11.0331 48.3125 11.3963 48.2369 11.8898L47.9808 13.5215L47.5769 12.9302C46.3257 11.0969 43.535 10.4842 40.7503 10.4842C34.3627 10.4842 28.9074 15.3672 27.845 22.2167C27.2928 25.6332 28.0779 28.9005 29.9985 31.1788C31.7599 33.2735 34.2801 34.1468 37.2784 34.1468C42.4252 34.1468 45.2786 30.8066 45.2786 30.8066L45.0211 32.4278C44.9242 33.0475 45.3973 33.6034 46.0133 33.6034H51.2194C52.0474 33.6034 52.7464 32.9976 52.8769 32.1728L56.0008 12.2052C56.0997 11.5904 55.6281 11.0331 55.0106 11.0331ZM46.9535 22.3879C46.3959 25.7205 43.7753 27.9579 40.4324 27.9579C38.7541 27.9579 37.4129 27.4146 36.5512 26.3852C35.6969 25.3628 35.3726 23.9072 35.644 22.2861C36.1651 18.9818 38.8297 16.6711 42.1216 16.6711C43.7629 16.6711 45.0972 17.2219 45.9762 18.2598C46.8566 19.3092 47.2061 20.7737 46.9535 22.3879Z" fill="#28356A"/>
<path fill-rule="evenodd" clip-rule="evenodd" d="M85.3495 11.5329H79.5408C78.9866 11.5329 78.4661 11.8108 78.1521 12.2759L70.141 24.186L66.7453 12.7404C66.5317 12.0244 65.8772 11.5329 65.1357 11.5329H59.4283C58.7342 11.5329 58.2527 12.217 58.4732 12.8761L64.8712 31.8263L58.8563 40.3968C58.3832 41.0719 58.8598 42 59.6769 42H65.4782C66.029 42 66.5441 41.7291 66.8565 41.2735L86.1751 13.1271C86.6378 12.454 86.1628 11.5329 85.3495 11.5329Z" fill="#28356A"/>
<path fill-rule="evenodd" clip-rule="evenodd" d="M104.713 0H92.6414C91.8173 0 91.1148 0.60576 90.9858 1.42907L86.104 32.6691C86.0071 33.2859 86.4802 33.8412 87.0962 33.8412H93.291C93.8659 33.8412 94.3583 33.4176 94.4483 32.8403L95.834 23.9849C95.961 23.1601 96.6655 22.5543 97.4896 22.5543H101.309C109.261 22.5543 113.848 18.6708 115.049 10.9755C115.591 7.60842 115.07 4.96334 113.508 3.11063C111.794 1.0763 108.753 0 104.713 0ZM106.106 11.4101C105.447 15.7817 102.138 15.7817 98.9368 15.7817H97.1175L98.3969 7.61738C98.4726 7.12389 98.8928 6.76063 99.3886 6.76063H100.224C102.401 6.76063 104.459 6.76063 105.522 8.01456C106.155 8.76253 106.348 9.87426 106.106 11.4101Z" fill="#298FC2"/>
<path fill-rule="evenodd" clip-rule="evenodd" d="M141.094 11.0331H135.317C134.821 11.0331 134.399 11.3963 134.325 11.8898L134.069 13.5215L133.663 12.9302C132.412 11.0969 129.623 10.4842 126.838 10.4842C120.451 10.4842 114.998 15.3672 113.935 22.2167C113.385 25.6332 114.166 28.9005 116.086 31.1788C117.852 33.2735 120.368 34.1468 123.367 34.1468C128.513 34.1468 131.367 30.8066 131.367 30.8066L131.11 32.4278C131.013 33.0475 131.485 33.6034 132.105 33.6034H137.31C138.134 33.6034 138.836 32.9976 138.965 32.1728L142.091 12.2052C142.186 11.5904 141.713 11.0331 141.094 11.0331ZM133.037 22.3879C132.483 25.7205 129.858 27.9579 126.515 27.9579C124.84 27.9579 123.496 27.4146 122.634 26.3852C121.78 25.3628 121.459 23.9072 121.727 22.2861C122.251 18.9818 124.912 16.6711 128.204 16.6711C129.846 16.6711 131.18 17.2219 132.059 18.2598C132.943 19.3092 133.292 20.7737 133.037 22.3879Z" fill="#298FC2"/>
<path fill-rule="evenodd" clip-rule="evenodd" d="M147.427 0.858742L142.473 32.6706C142.376 33.2873 142.848 33.8427 143.464 33.8427H148.445C149.273 33.8427 149.975 33.2375 150.102 32.4126L154.987 1.1741C155.085 0.557359 154.612 0 153.996 0H148.419C147.926 0.00149694 147.503 0.365252 147.427 0.858742Z" fill="#298FC2"/>
</svg>
