<svg width="60" height="46" viewBox="0 0 138 46" fill="none" xmlns="http://www.w3.org/2000/svg">
<path fill-rule="evenodd" clip-rule="evenodd" d="M34.5014 45.6418H22.5584L13.6026 9.95631C13.1775 8.31478 12.2749 6.86357 10.9473 6.1796C7.63399 4.46075 3.98295 3.0928 0 2.40288V1.02899H19.2393C21.8946 1.02899 23.8861 3.0928 24.218 5.48968L28.8647 31.2308L40.802 1.02899H52.4131L34.5014 45.6418ZM59.0514 45.6418H47.7722L57.0599 1.02899H68.3391L59.0514 45.6418ZM82.9316 13.388C83.2635 10.9852 85.255 9.61129 87.5784 9.61129C91.2294 9.26633 95.2065 9.95625 98.5257 11.6692L100.517 2.06381C97.198 0.689919 93.547 0 90.2337 0C79.2864 0 71.3205 6.17954 71.3205 14.7559C71.3205 21.2804 76.963 24.7063 80.9459 26.7701C85.255 28.8279 86.9145 30.2018 86.5826 32.2597C86.5826 35.3465 83.2635 36.7204 79.9502 36.7204C75.9672 36.7204 71.9843 35.6914 68.3391 33.9726L66.3476 43.5839C70.3306 45.2968 74.6396 45.9867 78.6226 45.9867C90.8975 46.3257 98.5257 40.1521 98.5257 30.8858C98.5257 19.2166 82.9316 18.5327 82.9316 13.388ZM138 45.6418L129.044 1.02899H119.425C117.433 1.02899 115.442 2.40288 114.778 4.46075L98.1938 45.6418H109.805L112.122 39.1232H126.389L127.717 45.6418H138ZM121.084 13.0432L124.397 29.857H115.11L121.084 13.0432Z" fill="#172B85"/>
</svg>
